<svg width="21" height="16" viewBox="0 0 21 16" fill="none" xmlns="http://www.w3.org/2000/svg">
<path d="M0.740723 10.7263C0.740723 11.2927 0.852269 11.8534 1.06899 12.3767C1.28572 12.8999 1.60337 13.3753 2.00383 13.7757C2.81258 14.5845 3.90948 15.0388 5.05322 15.0388H16.5532C17.4023 15.0404 18.2203 14.7198 18.8423 14.1419C19.4643 13.564 19.844 12.7717 19.9048 11.9248C19.9656 11.078 19.703 10.2396 19.1699 9.57872C18.6368 8.91789 17.8729 8.48381 17.0324 8.36404C17.0417 6.73369 16.457 5.15573 15.3876 3.92513C14.3181 2.69453 12.8371 1.89553 11.2214 1.67747C9.60564 1.45942 7.96579 1.83724 6.60838 2.74032C5.25096 3.6434 4.26888 5.00991 3.84572 6.58442C2.94964 6.84578 2.16254 7.39082 1.60265 8.13768C1.04276 8.88455 0.740308 9.79291 0.740723 10.7263Z" stroke="#6C2CDA" stroke-width="1.5" stroke-linejoin="round"/>
<path d="M12.2406 7.36979L10.3239 5.45312M10.3239 5.45312L8.40723 7.36979M10.3239 5.45312V11.2031" stroke="#6C2CDA" stroke-width="1.5" stroke-linecap="round" stroke-linejoin="round"/>
</svg>
